<svg id="Layer_1" data-name="Layer 1" xmlns="http://www.w3.org/2000/svg" viewBox="0 0 243 38.39"><defs><style>.cls-1{fill:#fefefe;}.cls-2{fill:#232d65;}</style></defs><title>In-Shape</title><path class="cls-1" d="M363.79,409.26h200v6l-0.26-.81a3.71,3.71,0,0,0-5.79-1.95,4.78,4.78,0,0,0-1.21,5.69,3.7,3.7,0,0,0,7-.49c0.07-.24.18-0.47,0.27-0.7v30.62H321.27a2.11,2.11,0,0,1-.44-0.09h36.46c0.09-.51.19-1,0.27-1.49q1.53-9.08,3.05-18.17,1.1-6.53,2.22-13Q363.31,412.06,363.79,409.26Zm34,24.45c-0.12-.24-0.2-0.37-0.26-0.51l-2.3-5.28-2.93-6.69q-1.83-4.17-3.66-8.33a0.47,0.47,0,0,0-.51-0.33c-1.68,0-3.37,0-5.05,0a2.47,2.47,0,0,0-.29,0l-5.25,32.78h5.29l3.6-21.4a8.12,8.12,0,0,1,.62,1.21q1.61,3.47,3.24,6.93c0.91,1.93,1.83,3.85,2.73,5.77,1.13,2.39,2.24,4.79,3.37,7.18a0.6,0.6,0,0,0,.39.33c1.54,0,3.07,0,4.66,0l5.25-32.83H401Zm68.83-21.12-2,12.88H452.48l2-12.9c-1.85,0-3.65,0-5.44,0a0.52,0.52,0,0,0-.3.36c-0.49,3-1,5.9-1.43,8.86l-1.49,9.29q-0.8,5-1.61,10c-0.23,1.42-.45,2.84-0.67,4.29h5.69l2-14.06h12.52l-2.41,14.06h5.7l5.25-32.81h-5.7Zm62,0a3.64,3.64,0,0,1,2.08,1.67,13.15,13.15,0,0,1,.81,1.75,4.07,4.07,0,0,1,.17,2.28q-1,5.91-1.91,11.83-1,6.32-2,12.65l-0.42,2.64h21.09l1.2-5.76H533.88c0.53-2.87,1.06-5.68,1.56-8.49,0.06-.33.26-0.27,0.46-0.27H544l0.81-5.79H536.3l1.22-6.23H551.6a0.48,0.48,0,0,0,.6-0.47c0.15-1,.37-1.94.55-2.91s0.36-1.92.55-2.9H528.66Zm-30.84,32.82-5.66-32.83c-2,0-3.91,0-5.83,0a0.54,0.54,0,0,0-.39.26c-0.33.63-.62,1.27-0.94,1.91l-3.44,7L478,429l-3.21,6.51-4.45,9-0.44.9c1.81,0,3.53,0,5.24,0a0.62,0.62,0,0,0,.66-0.4c1.07-2.24,2.17-4.47,3.24-6.72a0.58,0.58,0,0,1,.62-0.39c3.48,0,7,0,10.45,0l0.43,0,1.21,7.44h6.1Zm10.14-12h8.23a9.29,9.29,0,0,0,1.12,0,8.83,8.83,0,0,0,4.27-1.77,15.46,15.46,0,0,0,3.66-3.62,11.51,11.51,0,0,0,2-8.37,7,7,0,0,0-5.2-6.1A13.61,13.61,0,0,0,518,413c-3.84,0-7.68,0-11.52,0h-0.53l-5.26,32.43h5.69Zm-66.47-11.8,0.76-6.23c0.1-.79.1-0.8-0.67-1.1s-1.44-.58-2.17-0.82a18.16,18.16,0,0,0-5.71-1.27,12.18,12.18,0,0,0-7.67,2.51,10.48,10.48,0,0,0-3.31,4,11.44,11.44,0,0,0-1,6.44,5.89,5.89,0,0,0,3.63,4.75c2,0.85,4,1.5,6,2.22a9.69,9.69,0,0,1,3.09,1.45,2.39,2.39,0,0,1,.92,1.89c0,1.85-1.13,2.91-2.6,3.62a8.67,8.67,0,0,1-5.32.56,10.51,10.51,0,0,1-2.65-.73,9.36,9.36,0,0,1-3.54-2.54,0.49,0.49,0,0,0-.08.11c-0.51,2.1-1,4.2-1.53,6.31a0.53,0.53,0,0,0,.19.42,14.68,14.68,0,0,0,6.19,2.58,12,12,0,0,0,5.26-.25,13.38,13.38,0,0,0,7.79-4.61,11.93,11.93,0,0,0,2.4-7.18,6.57,6.57,0,0,0-4.1-6.63,23.78,23.78,0,0,0-2.71-1,31.48,31.48,0,0,1-4.78-1.64c-0.32-.16-0.63-0.32-0.93-0.51a2.79,2.79,0,0,1,0-4.66,5.51,5.51,0,0,1,2.8-.86A13.23,13.23,0,0,1,441.49,421.62Zm-69.64-9-5.25,32.81h5.7l5.25-32.81h-5.7ZM418,425.54H407.48l-0.8,6.13h16.17C420.12,430.77,417.82,429,418,425.54Z" transform="translate(-320.83 -409.26)"/><path class="cls-2" d="M363.79,409.26q-0.48,2.8-1,5.59-1.11,6.52-2.22,13-1.53,9.08-3.05,18.17c-0.08.49-.18,1-0.27,1.49H320.83v-0.39a1,1,0,0,0,.09-0.21q1-5.9,2-11.8c0.54-3.17,1.09-6.34,1.63-9.51q1.11-6.52,2.21-13c0.19-1.11.34-2.23,0.51-3.35h36.55Zm-23.36,29.66-0.09.14a10.75,10.75,0,0,1,1,.9,1.4,1.4,0,0,0,1.27.5,13.88,13.88,0,0,0,7.44-2.57,7.65,7.65,0,0,0,2.6-3.07c0.77-1.75.92-4.16-.62-5.61a8,8,0,0,0-2.06-1.55c-1.72-.78-3.5-1.41-5.27-2.06a9.17,9.17,0,0,1-2.51-1.38,1.59,1.59,0,0,1-.56-2,3.73,3.73,0,0,1,1.92-2.14,8.29,8.29,0,0,1,3.57-.79,8.75,8.75,0,0,1,4.39.8,3.58,3.58,0,0,1,2.13,3.46c0,0.51,0,1,0,1.56h1.19l2.44-7.51a9.08,9.08,0,0,0-1,0,0.65,0.65,0,0,0-.39.22c-0.32.4-.61,0.83-0.93,1.23-0.51.65-.51,0.63-1.32,0.38a20,20,0,0,0-7.3-1.32,12.08,12.08,0,0,0-8.37,3.6,8.41,8.41,0,0,0-1.81,2.62,3.8,3.8,0,0,0,1.48,4.87,11,11,0,0,0,1.62.87c2,0.86,4,1.67,6,2.53a7.55,7.55,0,0,1,1.55.9A2.08,2.08,0,0,1,347,437a7.81,7.81,0,0,1-4,1.91A13.39,13.39,0,0,1,340.43,438.92ZM330.18,414.1a6.09,6.09,0,0,1,1.6.37,3.2,3.2,0,0,1,1.61,3.08c0,4.55,0,9.1,0,13.66a1,1,0,0,0,.4.79,1.06,1.06,0,0,1,.41.69q-0.25,2.92-.59,5.84a2.57,2.57,0,0,1-2.18,2.23c-0.4.1-.82,0.13-1.27,0.2l0,0.7H342.7c0-.13,0-0.25,0-0.36s0-.24,0-0.35h-0.29c-2.28.09-3.33-.91-3.33-3.19,0-2,0-4,0-6a0.56,0.56,0,0,0-.36-0.59,6.39,6.39,0,0,1-3.29-3.46,4.8,4.8,0,0,1,.46-4.71,13.32,13.32,0,0,1,2.89-3.11,0.75,0.75,0,0,0,.29-0.49c0-.76,0-1.52,0-2.28a2.18,2.18,0,0,1,1-2.22,7.47,7.47,0,0,1,1.55-.58,6.31,6.31,0,0,1,1.12-.11v-0.72h-12.5v0.65Zm2,25.48a2.08,2.08,0,0,0,.08-0.26q0.54-2.83,1.08-5.66a0.35,0.35,0,0,0-.08-0.29c-0.35-.25-0.71-0.48-1.1-0.73l-4.79,8.24c0.85,0,1.61.16,2.21-.52a1.49,1.49,0,0,1,.73-0.36C330.9,439.82,331.52,439.71,332.17,439.57Z" transform="translate(-320.83 -409.26)"/><path class="cls-1" d="M327.25,409.26c-0.17,1.12-.32,2.23-0.51,3.35q-1.1,6.52-2.21,13c-0.54,3.17-1.09,6.34-1.63,9.51q-1,5.9-2,11.8a1,1,0,0,1-.09.21V409.26h6.42Z" transform="translate(-320.83 -409.26)"/><path class="cls-2" d="M563.83,417c-0.09.23-.2,0.46-0.27,0.7a3.7,3.7,0,0,1-7,.49,4.78,4.78,0,0,1,1.21-5.69,3.71,3.71,0,0,1,5.79,1.95l0.26,0.81V417Zm-7.31-.68c0.1,0.4.22,1,.43,1.61a3.32,3.32,0,0,0,3.06,2.08,3.43,3.43,0,0,0,3-2.08,4.77,4.77,0,0,0,.06-3.5,3.25,3.25,0,0,0-5.33-1.35A4.55,4.55,0,0,0,556.52,416.36Z" transform="translate(-320.83 -409.26)"/><path class="cls-2" d="M397.78,433.72L401,412.61h5.7l-5.25,32.83c-1.59,0-3.13,0-4.66,0a0.6,0.6,0,0,1-.39-0.33c-1.13-2.39-2.25-4.79-3.37-7.18-0.91-1.93-1.83-3.85-2.73-5.77q-1.63-3.46-3.24-6.93a8.12,8.12,0,0,0-.62-1.21l-3.6,21.4h-5.29l5.25-32.78a2.47,2.47,0,0,1,.29,0c1.68,0,3.37,0,5.05,0a0.47,0.47,0,0,1,.51.33q1.82,4.17,3.66,8.33l2.93,6.69,2.3,5.28C397.59,433.34,397.66,433.48,397.78,433.72Z" transform="translate(-320.83 -409.26)"/><path class="cls-2" d="M466.62,412.6h5.7l-5.25,32.81h-5.7l2.41-14.06H451.25l-2,14.06h-5.69c0.23-1.45.45-2.87,0.67-4.29q0.8-5,1.61-10l1.49-9.29c0.47-3,.94-5.91,1.43-8.86a0.52,0.52,0,0,1,.3-0.36c1.79,0,3.59,0,5.44,0l-2,12.9h12.12Z" transform="translate(-320.83 -409.26)"/><path class="cls-2" d="M528.66,412.6H553.3c-0.19,1-.37,1.94-0.55,2.9s-0.4,1.93-.55,2.91a0.48,0.48,0,0,1-.6.47H537.52l-1.22,6.23h8.51L544,430.89h-8.1c-0.2,0-.4-0.06-0.46.27-0.51,2.81-1,5.62-1.56,8.49h15.79l-1.2,5.76H527.38l0.42-2.64q1-6.32,2-12.65,0.95-5.91,1.91-11.83a4.07,4.07,0,0,0-.17-2.28,13.15,13.15,0,0,0-.81-1.75A3.64,3.64,0,0,0,528.66,412.6Z" transform="translate(-320.83 -409.26)"/><path class="cls-2" d="M497.82,445.42h-6.1L490.51,438l-0.43,0c-3.48,0-7,0-10.45,0a0.58,0.58,0,0,0-.62.39c-1.07,2.24-2.17,4.47-3.24,6.72a0.62,0.62,0,0,1-.66.4c-1.72,0-3.43,0-5.24,0l0.44-.9,4.45-9L478,429l3.6-7.29,3.44-7c0.31-.64.61-1.28,0.94-1.91a0.54,0.54,0,0,1,.39-0.26c1.93,0,3.85,0,5.83,0ZM487.69,421l-5.24,11.19h6.86Z" transform="translate(-320.83 -409.26)"/><path class="cls-2" d="M508,433.42l-1.61,12h-5.69L505.91,413h0.53c3.84,0,7.68,0,11.52,0a13.61,13.61,0,0,1,4.12.55,7,7,0,0,1,5.2,6.1,11.51,11.51,0,0,1-2,8.37,15.46,15.46,0,0,1-3.66,3.62,8.83,8.83,0,0,1-4.27,1.77,9.29,9.29,0,0,1-1.12,0H508Zm1.63-5.88h6.59a5.08,5.08,0,0,0,4.94-3.7,4.7,4.7,0,0,0,0-2.68,3.43,3.43,0,0,0-3.49-2.27c-2.17,0-4.34,0-6.51,0l-0.31,0Z" transform="translate(-320.83 -409.26)"/><path class="cls-2" d="M441.49,421.62a13.23,13.23,0,0,0-9.67-3.21,5.51,5.51,0,0,0-2.8.86,2.79,2.79,0,0,0,0,4.66c0.3,0.19.62,0.35,0.93,0.51a31.48,31.48,0,0,0,4.78,1.64,23.78,23.78,0,0,1,2.71,1,6.57,6.57,0,0,1,4.1,6.63,11.93,11.93,0,0,1-2.4,7.18,13.38,13.38,0,0,1-7.79,4.61,12,12,0,0,1-5.26.25,14.68,14.68,0,0,1-6.19-2.58,0.53,0.53,0,0,1-.19-0.42c0.5-2.11,1-4.21,1.53-6.31a0.49,0.49,0,0,1,.08-0.11,9.36,9.36,0,0,0,3.54,2.54,10.51,10.51,0,0,0,2.65.73,8.67,8.67,0,0,0,5.32-.56c1.47-.71,2.63-1.77,2.6-3.62a2.39,2.39,0,0,0-.92-1.89,9.69,9.69,0,0,0-3.09-1.45c-2-.72-4.06-1.37-6-2.22a5.89,5.89,0,0,1-3.63-4.75,11.44,11.44,0,0,1,1-6.44,10.48,10.48,0,0,1,3.31-4,12.18,12.18,0,0,1,7.67-2.51,18.16,18.16,0,0,1,5.71,1.27c0.73,0.25,1.45.54,2.17,0.82s0.76,0.31.67,1.1Z" transform="translate(-320.83 -409.26)"/><path class="cls-2" d="M371.85,412.6h5.7l-5.25,32.81h-5.7Z" transform="translate(-320.83 -409.26)"/><path class="cls-2" d="M418,425.54c-0.19,3.48,2.11,5.22,4.85,6.13H406.68l0.8-6.13H418Z" transform="translate(-320.83 -409.26)"/><path class="cls-1" d="M340.43,438.92a13.39,13.39,0,0,0,2.51,0,7.81,7.81,0,0,0,4-1.91,2.08,2.08,0,0,0-.17-3.5,7.55,7.55,0,0,0-1.55-.9c-2-.86-4-1.67-6-2.53a11,11,0,0,1-1.62-.87,3.8,3.8,0,0,1-1.48-4.87A8.41,8.41,0,0,1,338,421.7a12.08,12.08,0,0,1,8.37-3.6,20,20,0,0,1,7.3,1.32c0.81,0.25.81,0.27,1.32-.38,0.32-.4.61-0.83,0.93-1.23a0.65,0.65,0,0,1,.39-0.22,9.08,9.08,0,0,1,1,0l-2.44,7.51h-1.19c0-.54,0-1,0-1.56a3.58,3.58,0,0,0-2.13-3.46,8.75,8.75,0,0,0-4.39-.8,8.29,8.29,0,0,0-3.57.79,3.73,3.73,0,0,0-1.92,2.14,1.59,1.59,0,0,0,.56,2,9.17,9.17,0,0,0,2.51,1.38c1.77,0.65,3.56,1.28,5.27,2.06a8,8,0,0,1,2.06,1.55c1.54,1.45,1.39,3.86.62,5.61a7.65,7.65,0,0,1-2.6,3.07,13.88,13.88,0,0,1-7.44,2.57,1.4,1.4,0,0,1-1.27-.5,10.75,10.75,0,0,0-1-.9Z" transform="translate(-320.83 -409.26)"/><path class="cls-1" d="M330.18,414.1v-0.65h12.5v0.72a6.31,6.31,0,0,0-1.12.11,7.47,7.47,0,0,0-1.55.58,2.18,2.18,0,0,0-1,2.22c0,0.76,0,1.52,0,2.28a0.75,0.75,0,0,1-.29.49,13.32,13.32,0,0,0-2.89,3.11,4.8,4.8,0,0,0-.46,4.71,6.39,6.39,0,0,0,3.29,3.46,0.56,0.56,0,0,1,.36.59c0,2,0,4,0,6,0,2.28,1.05,3.29,3.33,3.19h0.29c0,0.11,0,.23,0,0.35s0,0.22,0,.36H330.18l0-.7c0.45-.07.87-0.1,1.27-0.2a2.57,2.57,0,0,0,2.18-2.23q0.35-2.91.59-5.84a1.06,1.06,0,0,0-.41-0.69,1,1,0,0,1-.4-0.79c0-4.55,0-9.1,0-13.66a3.2,3.2,0,0,0-1.61-3.08A6.09,6.09,0,0,0,330.18,414.1Z" transform="translate(-320.83 -409.26)"/><path class="cls-1" d="M332.17,439.57c-0.65.14-1.27,0.25-1.87,0.41a1.49,1.49,0,0,0-.73.36c-0.6.68-1.36,0.51-2.21,0.52l4.79-8.24c0.39,0.25.75,0.48,1.1,0.73a0.35,0.35,0,0,1,.08.29q-0.53,2.83-1.08,5.66A2.08,2.08,0,0,1,332.17,439.57Z" transform="translate(-320.83 -409.26)"/><path class="cls-1" d="M556.52,416.36a4.55,4.55,0,0,1,1.25-3.24,3.25,3.25,0,0,1,5.33,1.35A4.77,4.77,0,0,1,563,418a3.43,3.43,0,0,1-3,2.08,3.32,3.32,0,0,1-3.06-2.08C556.75,417.38,556.63,416.76,556.52,416.36Zm4.86,2.49c-0.13-.38-0.25-0.73-0.37-1.08a4.6,4.6,0,0,0-.23-0.58,0.6,0.6,0,0,1,.09-0.77,2.56,2.56,0,0,0,.48-0.89,1.28,1.28,0,0,0-.92-1.69,18.22,18.22,0,0,0-1.83,0v5h0.77v-2.05l0.11-.1a1.26,1.26,0,0,1,.38.32c0.18,0.38.29,0.78,0.45,1.17C560.65,419,560.4,418.87,561.39,418.85Z" transform="translate(-320.83 -409.26)"/><path class="cls-1" d="M487.69,421l1.61,11.19h-6.86Z" transform="translate(-320.83 -409.26)"/><path class="cls-1" d="M509.58,427.54l1.2-8.64,0.31,0c2.17,0,4.34,0,6.51,0a3.43,3.43,0,0,1,3.49,2.27,4.7,4.7,0,0,1,0,2.68,5.08,5.08,0,0,1-4.94,3.7h-6.59Z" transform="translate(-320.83 -409.26)"/><path class="cls-2" d="M561.39,418.85c-1,0-.74.14-1.07-0.67-0.16-.39-0.28-0.79-0.45-1.17a1.26,1.26,0,0,0-.38-0.32l-0.11.1v2.05H558.6v-5a18.22,18.22,0,0,1,1.83,0,1.28,1.28,0,0,1,.92,1.69,2.56,2.56,0,0,1-.48.89,0.6,0.6,0,0,0-.09.77,4.6,4.6,0,0,1,.23.58C561.14,418.12,561.26,418.47,561.39,418.85Zm-2-2.79a6.33,6.33,0,0,0,1.11-.54,0.68,0.68,0,0,0,0-.6,5.66,5.66,0,0,0-1.09-.25v1.4Z" transform="translate(-320.83 -409.26)"/><path class="cls-1" d="M559.39,416.06v-1.4a5.66,5.66,0,0,1,1.09.25,0.68,0.68,0,0,1,0,.6A6.33,6.33,0,0,1,559.39,416.06Z" transform="translate(-320.83 -409.26)"/></svg>