<?xml version="1.0" encoding="UTF-8"?>
<svg width="237px" height="18px" viewBox="0 0 237 18" version="1.1" xmlns="http://www.w3.org/2000/svg" xmlns:xlink="http://www.w3.org/1999/xlink">
    <!-- Generator: Sketch 53.2 (72643) - https://sketchapp.com -->
    <title>warby logo</title>
    <desc>Created with Sketch.</desc>
    <g id="Page-1" stroke="none" stroke-width="1" fill="none" fill-rule="evenodd">
        <g id="home-page-design" transform="translate(-429.000000, -1693.000000)" fill="#414B56">
            <g id="warby-logo" transform="translate(429.000000, 1693.000000)">
                <g id="warby_parker">
                    <path d="M229.591858,9.06736657 L225.177507,9.06736657 L225.177507,2.71041746 L229.745902,2.71041746 C231.87566,2.76741625 233.42874,4.00080688 233.43506,6.01951426 C233.411361,7.7967684 232.262745,9.01670098 229.591068,9.06736657 L229.591858,9.06736657 Z M236.779002,16.3370881 C235.455012,14.5637922 233.474559,11.9370976 232.611122,10.7876219 C234.554447,9.95084792 235.906875,8.27413332 235.906875,5.97439021 C235.901345,3.01520269 233.473769,0.413049293 229.79725,0.413049293 L223.362157,0.413049293 L223.316339,0.401966194 C223.073028,0.401966194 222.622746,0.853206667 222.622746,1.18728295 C222.614846,1.46990198 222.614846,16.5231258 222.622746,16.8682852 C222.627485,16.9894076 222.603786,17.1200299 222.753881,17.3591082 C222.948213,17.621936 223.235762,17.6361857 223.362157,17.6361857 L224.434146,17.6361857 C224.493394,17.6361857 224.720905,17.653602 224.997394,17.3804827 C225.200416,17.1461543 225.167238,17.0004907 225.177507,16.8682852 L225.177507,11.3148608 L229.971043,11.3148608 L234.331676,17.2403607 C234.445431,17.4287734 234.842786,17.6361857 235.129545,17.6361857 L236.174675,17.6361857 C236.250512,17.6361857 236.997823,17.4406481 236.997823,16.9506168 C237.021522,16.7186634 236.845359,16.4122948 236.778212,16.3370881 L236.779002,16.3370881 Z M215.676543,16.2080491 C215.660743,16.0679271 215.75159,15.9388882 215.510649,15.5628544 C215.239689,15.3364425 215.064316,15.3364425 214.926071,15.3364425 C214.910272,15.3364425 214.864454,15.3554421 214.823375,15.3364425 L205.762424,15.3364425 L205.762424,10.0379294 L214.651952,10.0379294 C215.192291,10.0379294 215.405583,9.29219516 215.405583,9.09111607 L215.405583,8.6002931 C215.405583,8.47521241 215.166222,7.72947815 214.651952,7.72947815 L205.786913,7.72947815 L205.786913,2.71358405 L214.753068,2.71358405 C214.865244,2.72625045 215.193081,2.70962581 215.411113,2.42384017 C215.574636,2.14359609 215.561207,1.99872415 215.569107,1.83960251 L215.569107,1.23794854 C215.524868,1.0978265 215.597546,0.930788362 215.406373,0.62837808 C215.141733,0.414632593 214.926861,0.414632593 214.801256,0.414632593 L203.863336,0.414632593 C203.795399,0.401966194 203.668214,0.401966194 203.452552,0.546838135 C203.171323,0.812832519 203.26296,1.02974461 203.25111,1.0693271 L203.25111,16.7645791 C203.26296,16.9181591 203.183963,17.0630311 203.367236,17.3108175 C203.556828,17.5926449 203.839637,17.635394 203.987362,17.635394 L214.926861,17.635394 C215.029557,17.635394 215.193081,17.6409356 215.467201,17.4279817 C215.74369,17.1192382 215.668643,16.9498251 215.676543,16.8049532 L215.676543,16.2088408 L215.676543,16.2080491 Z M190.587897,7.63289686 L196.143753,1.57123317 C196.23381,1.45802723 196.327816,1.32582169 196.327816,1.15561695 C196.288318,0.691710077 195.938361,0.413840943 195.517307,0.413840943 L194.490347,0.413840943 C194.14434,0.378216695 193.790434,0.622044881 193.692477,0.690918427 L185.336178,9.93343162 L185.336178,1.21736564 C185.336178,1.09861815 185.355138,0.930788362 185.170285,0.657669129 C184.961733,0.420174143 184.672604,0.413840943 184.546209,0.413840943 L183.588766,0.413840943 C183.47027,0.413840943 183.244339,0.413840943 182.993918,0.614920031 C182.790896,0.836582018 182.796426,1.06061895 182.796426,1.1864913 C182.790896,1.40656998 182.790896,16.705997 182.796426,16.8817433 C182.796426,17.0052406 182.796426,17.239569 183.003398,17.413732 C183.20563,17.6021447 183.449731,17.635394 183.621154,17.635394 L184.478271,17.635394 C184.628366,17.6211443 184.815588,17.6409356 185.110247,17.4533145 C185.355138,17.2205694 185.335389,16.9743663 185.335389,16.8817433 L185.335389,13.3573177 L188.803355,9.54948139 L194.716278,17.1453627 C194.940629,17.3226923 195.014097,17.5277296 195.648442,17.6361857 L196.772569,17.6361857 C197.033259,17.6361857 197.560959,17.3804827 197.560959,16.9577416 C197.555429,16.7139135 197.480382,16.5999159 197.385585,16.4748352 L190.587897,7.63210521 L190.587897,7.63289686 Z M168.942728,9.06736657 L164.497569,9.06736657 L164.497569,2.71041746 L169.055694,2.71041746 C171.190192,2.76741625 172.773291,4.00080688 172.790671,6.01951426 C172.766972,7.7967684 171.615196,9.01670098 168.943518,9.06736657 L168.942728,9.06736657 Z M171.954883,10.7876219 C173.895048,9.95084792 175.262486,8.27413332 175.255376,5.97439021 C175.255376,3.01520269 172.849128,0.413049293 169.113362,0.413049293 L162.698808,0.413049293 L162.675109,0.401174544 C162.438118,0.401174544 161.977566,0.852415017 161.977566,1.1864913 L161.977566,16.8682852 C161.983096,16.9894076 161.945967,17.1200299 162.122131,17.3591082 C162.314883,17.621936 162.604012,17.6361857 162.698808,17.6361857 L163.758948,17.6361857 C163.803976,17.6361857 164.063876,17.653602 164.327726,17.3804827 C164.541018,17.1461543 164.498359,17.0004907 164.498359,16.8682852 L164.498359,11.3148608 L169.317174,11.3148608 L173.701506,17.2403607 C173.788402,17.4287734 174.184967,17.6361857 174.485155,17.6361857 L175.488417,17.6361857 C175.595063,17.6361857 176.343164,17.4406481 176.343164,16.9506168 C176.353434,16.7186634 176.1828,16.4122948 176.115653,16.3370881 C174.780604,14.5637922 172.842809,11.9370976 171.954883,10.7876219 L171.954883,10.7876219 Z M144.161381,11.5096067 C144.935551,10.00943 146.627666,6.64650102 147.758113,4.27155116 C147.771542,4.26363466 147.777862,4.25888476 147.777862,4.25096826 C147.801561,4.26363466 147.807881,4.27075951 147.82684,4.29213406 C148.981776,6.64016782 150.640712,10.0078467 151.373804,11.508815 L144.161381,11.508815 L144.161381,11.5096067 Z M148.504634,0.47163139 C148.504634,0.457381691 148.253424,-0.0191915807 147.777862,0.000599668131 C147.327579,-0.0183999307 147.094538,0.47163139 147.094538,0.47163139 C145.501959,3.46802646 139.846567,14.7213305 138.949951,16.5231258 C138.873324,16.6054574 138.813286,16.7186634 138.813286,16.9901993 C138.873324,17.6361857 139.540058,17.6361857 139.668034,17.6361857 L140.511721,17.6361857 C140.918555,17.7042676 141.414656,17.2601519 141.430456,17.083614 L143.114671,13.752351 L152.467912,13.752351 L154.166346,17.1509042 C154.183726,17.3036927 154.616629,17.6417272 154.893118,17.6417272 C154.904968,17.6417272 154.924717,17.6417272 154.940517,17.6361857 L155.991176,17.6361857 C156.179189,17.6361857 156.787466,17.4287734 156.787466,16.9822828 C156.773246,16.7740789 156.698989,16.6751226 156.67371,16.5500419 C155.668079,14.5250013 150.034015,3.53769166 148.503844,0.47163139 L148.504634,0.47163139 Z M130.329012,9.10615742 C128.937086,9.09190772 126.774149,9.09190772 125.72033,9.09190772 L125.72033,2.71358405 L130.281614,2.71358405 C132.351335,2.76741625 133.958133,3.89551743 133.958133,5.90551666 C133.947073,8.03663833 132.360814,9.08478287 130.329802,9.10615742 L130.329012,9.10615742 Z M130.359031,0.413840943 L123.916039,0.413840943 C123.827562,0.401966194 123.581882,0.421757443 123.399399,0.622044881 C123.221656,0.812040869 123.184527,1.00995336 123.184527,1.18728295 L123.184527,16.8682852 C123.221656,16.9894076 123.145028,17.1200299 123.37728,17.3986907 C123.596101,17.6361857 123.814923,17.6361857 123.909719,17.6361857 L125.025946,17.6361857 C125.107313,17.6361857 125.413031,17.6361857 125.602624,17.3226923 C125.765358,17.0638227 125.70374,16.9585333 125.721119,16.8682852 L125.721119,11.3916508 L129.87952,11.3916508 C133.709293,11.3837343 136.486826,9.29377846 136.501045,5.90551666 C136.486826,2.50142187 133.578158,0.413840943 130.359821,0.413840943 L130.359031,0.413840943 Z M103.835801,0.413840943 L102.830169,0.413840943 C102.498382,0.398007944 102.134996,0.722584425 102.041779,0.936329912 C101.176763,2.23067758 98.1969972,6.80403936 97.0373218,8.61375115 C95.8705366,6.77712326 92.9002508,2.16734559 92.0344441,0.869039666 C92.0344441,0.716251225 91.4530264,0.326759448 91.2002361,0.413840943 L90.3099403,0.413840943 C90.136147,0.413840943 89.5262905,0.413840943 89.4030552,1.06853545 C89.4141148,1.28861414 89.4962716,1.39944513 89.5262905,1.46990198 C90.7799723,3.41102766 95.1018962,10.138469 95.7773202,11.1399061 L95.7773202,16.8318693 C95.7907497,16.988616 95.7409816,17.1453627 95.9669129,17.3971074 C96.1288567,17.6013531 96.3761172,17.6346024 96.5017224,17.6346024 L97.4828647,17.6346024 C97.6329589,17.6346024 97.8462507,17.6346024 98.1172103,17.3971074 C98.3360319,17.0986553 98.2862638,16.9379504 98.2862638,16.7717039 L98.2862638,11.1391145 C98.957738,10.1574686 103.128778,3.70552145 104.485946,1.55065027 C104.537294,1.39786183 104.606021,1.34957119 104.62498,1.0677438 C104.580742,0.446298591 103.923487,0.412257643 103.83738,0.412257643 L103.835801,0.413840943 Z M79.0836818,15.3562338 L73.4883268,15.3562338 L73.4883268,10.0775119 L79.0386535,10.0775119 C81.4638603,10.1139278 82.7009528,11.1961133 82.7222819,12.7588303 C82.6511847,14.5360844 81.7427196,15.254111 79.0844717,15.3554421 L79.0836818,15.3562338 Z M73.4891168,2.70962581 L78.3450602,2.70962581 C80.6596712,2.7729578 81.7624688,3.76489519 81.7916977,5.2531971 C81.6605627,7.16107349 81.1162737,7.72947815 78.7542644,7.8284344 L73.4891168,7.8284344 L73.4891168,2.71041746 L73.4891168,2.70962581 Z M82.7846895,8.71508234 C83.7563522,7.99309759 84.3701586,6.77791491 84.33461,5.15503251 C84.33461,2.09372214 81.5065187,0.414632593 78.1839063,0.414632593 L71.7456538,0.414632593 C71.6311082,0.414632593 71.3933273,0.414632593 71.1555464,0.603045282 C70.9225054,0.786708071 70.9225054,1.06220225 70.9225054,1.21894894 L70.9225054,16.8698685 C70.9225054,17.1216132 71.3309197,17.637769 71.688776,17.637769 L79.2661648,17.637769 C82.9395236,17.637769 85.2620343,16.0030118 85.2738839,12.7612053 C85.2738839,10.9586183 84.3022212,9.46319155 82.7854795,8.71587399 L82.7846895,8.71508234 Z M57.0553783,9.06815822 L52.5707207,9.06815822 L52.5707207,2.71358405 L57.166764,2.71358405 C59.2633435,2.76741625 60.8401229,4.00159853 60.8796213,6.01872261 C60.8037843,7.7967684 59.6749176,9.03490892 57.0545883,9.06657492 L57.0553783,9.06815822 Z M60.0454134,10.7939551 C61.982419,9.95243122 63.361706,8.27650827 63.361706,5.97597351 C63.3237874,3.00886949 60.9317593,0.413840943 57.2291716,0.413840943 L50.7774896,0.413840943 C50.6850631,0.401966194 50.4330628,0.421757443 50.2640093,0.622044881 C50.0823163,0.812040869 50.063357,1.00995336 50.063357,1.18728295 L50.063357,16.8682852 C50.063357,16.9894076 50.0191187,17.1200299 50.1881722,17.3511917 C50.4077838,17.6361857 50.6953327,17.6361857 50.8098783,17.6361857 L51.8621179,17.6361857 C51.9569142,17.6361857 52.1702061,17.6361857 52.4127267,17.3986907 C52.6260185,17.1200299 52.5565012,16.9894076 52.5817802,16.8682852 L52.5817802,11.3409852 L57.4045449,11.3409852 L61.7841366,17.2403607 C61.9184314,17.4145237 62.2344193,17.6361857 62.5188084,17.6361857 L63.5789476,17.6361857 C63.6911233,17.6361857 64.4178954,17.4731058 64.4178954,16.9506168 C64.4297449,16.7131218 64.2441021,16.4043783 64.1848543,16.3370881 C62.8687649,14.5772502 60.9199098,11.9370976 60.0422535,10.7923718 L60.0454134,10.7939551 Z M32.1002373,11.51119 C32.8404389,10.0110133 34.5451934,6.64808432 35.7056588,4.27313446 C35.7056588,4.26521796 35.7111886,4.26046806 35.7111886,4.24146846 C35.7167184,4.26521796 35.7317278,4.27313446 35.7427874,4.29371736 C36.922212,6.64175112 38.5519194,10.00943 39.31661,11.5103983 L32.1002373,11.5103983 L32.1002373,11.51119 Z M36.4158415,0.47163139 C36.4158415,0.457381691 36.2080795,-0.0191915807 35.7175083,0.000599668131 C35.2672256,-0.0183999307 34.998636,0.47163139 34.998636,0.47163139 C33.4502955,3.46802646 27.7806833,14.7213305 26.880118,16.5231258 C26.8090207,16.6054574 26.722124,16.7186634 26.722124,16.9901993 C26.8090207,17.6361857 27.4883946,17.6361857 27.60689,17.6361857 L28.4521575,17.6361857 C28.8550421,17.7042676 29.325864,17.2601519 29.3811618,17.083614 L30.9974397,13.752351 L40.3783292,13.752351 L42.0585946,17.1509042 C42.074394,17.3036927 42.5325764,17.6417272 42.7932664,17.6417272 C42.8090658,17.6417272 42.8406646,17.6417272 42.8540941,17.6361857 L43.9260829,17.6361857 C44.106196,17.6361857 44.7002531,17.4287734 44.7002531,16.9822828 C44.7002531,16.7740789 44.6449552,16.6751226 44.5785978,16.5500419 C43.6061452,14.5250013 37.9815613,3.53690001 36.4158415,0.47163139 Z M23.4800886,0.413840943 L22.6324512,0.413840943 C22.4223193,0.346550697 21.7634846,0.648960979 21.7634846,0.930788362 L17.2819868,12.727956 L12.9237243,0.842123567 C12.8447273,0.46529819 12.2443504,0.338634198 12.1993221,0.370300196 L12.1313847,0.370300196 C11.9070334,0.2958851 11.4314716,0.679043677 11.4314716,0.853206667 L7.21066385,12.7382474 C6.15684435,10.0656372 3.90227099,4.32221676 2.61699038,1.03528616 C2.56327245,0.774041672 2.19040678,0.378216695 1.79305205,0.413840943 L0.700524034,0.413840943 C0.629426766,0.413840943 0.526730713,0.401966194 0.28973982,0.503297388 C0.0701282601,0.62996138 -0.0120285827,0.930788362 0.00140090125,1.04953585 C0.00140090125,1.24507339 0.0645984726,1.33215489 0.09224741,1.46911033 L6.44913311,17.5396044 C6.69007386,17.9243462 7.04635016,17.9987613 7.16010579,17.9987613 L7.21066385,17.9987613 C7.21066385,17.9987613 7.78339184,18.0335939 7.95560522,17.4921054 C9.16662868,14.1553008 11.2047504,8.65175035 12.1819428,6.03851385 C13.139386,8.6826247 15.1775077,14.2859231 16.3798415,17.4968553 C16.4588384,17.8808055 17.0829145,18.0138027 17.1508518,17.9987613 C17.19983,18.0145943 17.824696,17.8800138 17.8815738,17.5158549 C20.0129119,12.1643012 22.5645138,5.71710397 24.2131804,1.46911033 C24.2558388,1.33215489 24.276378,1.28148929 24.2937573,1.06853545 C24.2937573,0.503297388 23.548026,0.413840943 23.4800886,0.413840943 Z" id="Shape" fill-rule="nonzero"></path>
                </g>
            </g>
        </g>
    </g>
</svg>