<?xml version="1.0" encoding="UTF-8"?>
<svg width="111px" height="34px" viewBox="0 0 111 34" version="1.1" xmlns="http://www.w3.org/2000/svg" xmlns:xlink="http://www.w3.org/1999/xlink">
    <!-- Generator: Sketch 53.2 (72643) - https://sketchapp.com -->
    <title>Group 17</title>
    <desc>Created with Sketch.</desc>
    <defs>
        <polygon id="path-1" points="0 33.8446625 110.898835 33.8446625 110.898835 -0.0002125 0 -0.0002125"></polygon>
    </defs>
    <g id="Page-1" stroke="none" stroke-width="1" fill="none" fill-rule="evenodd">
        <g id="home-page-design" transform="translate(-40.000000, -18.000000)">
            <g id="Group-17" transform="translate(40.000000, 18.000000)">
                <g id="Group-16">
                    <path d="M50.9345981,21.5217875 L50.9345981,18.4525792 C50.499731,17.3461625 49.8168703,16.7823292 48.8431614,16.7823292 C47.8701551,16.7823292 47.3523892,17.3461625 47.3523892,18.7656625 L47.3523892,21.1874542 C47.3523892,22.5864125 47.8701551,23.1714958 48.8642373,23.1714958 C49.8168703,23.1714958 50.499731,22.6076625 50.9345981,21.5217875 M44.2879462,21.2087042 L44.2879462,18.7656625 C44.2879462,15.8225375 45.6754462,14.2769542 48.1392247,14.2769542 C49.2991044,14.2769542 50.2095854,14.6318292 50.9345981,15.4046208 L50.9345981,10.1849125 L53.9997437,10.1849125 L53.9997437,25.4261208 L51.3905411,25.4261208 L51.3076424,24.1107458 C50.499731,25.1959125 49.5056487,25.6761625 48.1392247,25.6761625 C45.6754462,25.6761625 44.2879462,24.1525375 44.2879462,21.2087042" id="Fill-1" fill="#231F20"></path>
                    <mask id="mask-2" fill="white">
                        <use xlink:href="#path-1"></use>
                    </mask>
                    <g id="Clip-4"></g>
                    <path d="M56.3936203,25.4261208 L59.4587658,25.4261208 L59.4587658,14.5277042 L56.3936203,14.5277042 L56.3936203,25.4261208 Z M56.3107215,12.9828292 L59.540962,12.9828292 L59.540962,10.3520792 L56.3107215,10.3520792 L56.3107215,12.9828292 Z" id="Fill-3" fill="#231F20" mask="url(#mask-2)"></path>
                    <path d="M68.1266715,20.8328625 L68.1266715,18.4316125 C67.6918044,17.3464458 67.0082411,16.7826125 66.0563108,16.7826125 C65.0622285,16.7826125 64.5444627,17.3669875 64.5444627,18.7659458 L64.5444627,20.5197792 C64.5444627,21.9392792 65.0622285,22.5031125 66.0352348,22.5031125 C67.0082411,22.5031125 67.6918044,21.9392792 68.1266715,20.8328625 M61.6661905,25.8854042 L64.5444627,25.8854042 C64.6273614,26.7205292 65.1444247,27.0541542 66.2214057,27.0541542 C67.5674563,27.0541542 68.1266715,26.5328208 68.1266715,25.1338625 L68.1266715,23.8815292 C67.4016589,24.6536125 66.4904753,25.0084875 65.3312981,25.0084875 C62.8668171,25.0084875 61.4793171,23.4636125 61.4793171,20.5197792 L61.4793171,18.7454042 C61.4793171,15.8008625 62.8668171,14.2772375 65.3312981,14.2772375 C66.6977222,14.2772375 67.6918044,14.7574875 68.4997158,15.8433625 L68.581912,14.5279875 L71.1911146,14.5279875 L71.1911146,25.1338625 C71.1911146,28.1194875 69.5759943,29.4766542 66.2628551,29.4766542 C63.3845829,29.4766542 61.7898361,28.4325708 61.6661905,25.8854042" id="Fill-5" fill="#231F20" mask="url(#mask-2)"></path>
                    <path d="M73.5859747,25.4261208 L76.6504177,25.4261208 L76.6504177,14.5277042 L73.5859747,14.5277042 L73.5859747,25.4261208 Z M73.5030759,12.9828292 L76.7333165,12.9828292 L76.7333165,10.3520792 L73.5030759,10.3520792 L73.5030759,12.9828292 Z" id="Fill-6" fill="#231F20" mask="url(#mask-2)"></path>
                    <path d="M79.7565209,21.8770167 L79.7565209,16.8662667 L78.18285,16.8662667 L78.18285,14.5280583 L79.8183437,14.5280583 L79.9841411,11.813725 L82.8209639,11.813725 L82.8209639,14.5280583 L85.0578247,14.5280583 L85.0578247,16.8662667 L82.8209639,16.8662667 L82.8209639,21.6886 C82.8209639,22.7121417 83.0696601,23.003975 83.9597677,23.003975 L85.1610968,23.003975 L85.1610968,25.4257667 L82.9038627,25.4257667 C80.6887804,25.4257667 79.7565209,24.3823917 79.7565209,21.8770167" id="Fill-7" fill="#231F20" mask="url(#mask-2)"></path>
                    <path d="M92.7591873,22.0230042 L92.7591873,20.7699625 L91.330238,20.7699625 C89.9420354,20.7699625 89.4874975,21.2509208 89.4874975,22.0435458 C89.4874975,22.8368792 89.9420354,23.2547958 90.8124722,23.2547958 C91.6822063,23.2547958 92.3236177,22.8368792 92.7591873,22.0230042 M86.4638013,22.2942958 C86.4638013,19.9978792 87.8927506,18.7242958 90.7710228,18.7242958 L92.7591873,18.7242958 L92.7591873,18.3694208 C92.7591873,17.2417542 92.3236177,16.6991708 91.2262633,16.6991708 C90.1703582,16.6991708 89.7565671,17.1794208 89.7151177,17.9309625 L86.7532443,17.9309625 C86.9190418,15.5091708 88.3690671,14.2766708 91.3506114,14.2766708 C94.4150544,14.2766708 95.8236304,15.5715042 95.8236304,18.4105042 L95.8236304,25.4258375 L93.2355038,25.4258375 L93.1315291,24.0686708 C92.3868456,25.1340042 91.3098646,25.6765875 89.8802127,25.6765875 C87.7473266,25.6765875 86.4638013,24.4660458 86.4638013,22.2942958" id="Fill-8" fill="#231F20" mask="url(#mask-2)"></path>
                    <polygon id="Fill-9" fill="#231F20" mask="url(#mask-2)" points="98.1261076 25.4261208 101.190551 25.4261208 101.190551 10.1849125 98.1261076 10.1849125"></polygon>
                    <path d="M105.64699,16.5994375 C105.64699,15.2727292 106.216743,14.4893125 107.760908,13.7689375 C108.744452,13.3092292 109.054971,12.9748958 109.054971,12.4422292 C109.054971,12.0037708 108.806275,11.7112292 108.288509,11.7112292 C107.770041,11.7112292 107.532585,12.0143958 107.532585,12.6724375 L107.532585,12.8913125 L105.772041,12.8913125 L105.772041,12.5151875 C105.772041,11.0014792 106.652313,10.2180625 108.320123,10.2180625 C109.997066,10.2180625 110.899116,11.0113958 110.899116,12.4110625 C110.899116,13.6123958 110.245762,14.4057292 108.712838,15.0843125 C107.915465,15.4398958 107.615484,15.6382292 107.54242,15.9413958 L110.899116,15.9413958 L110.899116,17.4451875 L105.64699,17.4451875 L105.64699,16.5994375 Z" id="Fill-10" fill="#231F20" mask="url(#mask-2)"></path>
                    <polygon id="Fill-11" fill="#213F99" mask="url(#mask-2)" points="24.8857785 8.75337083 33.5676646 8.75337083 33.5676646 -0.0002125 24.8857785 -0.0002125"></polygon>
                    <polygon id="Fill-12" fill="#213F99" mask="url(#mask-2)" points="0 33.8446625 8.68118354 33.8446625 8.68118354 25.0910792 0 25.0910792"></polygon>
                    <polygon id="Fill-13" fill="#675DA8" mask="url(#mask-2)" points="8.68146456 8.7535125 24.885357 8.7535125 24.885357 -7.08333333e-05 0.000281012658 -7.08333333e-05 0.000281012658 25.0912208 8.68146456 25.0912208"></polygon>
                    <polygon id="Fill-14" fill="#1C75BB" mask="url(#mask-2)" points="24.8857082 25.09115 8.68181582 25.09115 8.68181582 33.8447333 33.5675943 33.8447333 33.5675943 8.75344167 24.8857082 8.75344167"></polygon>
                    <polygon id="Fill-15" fill="#51A1D8" mask="url(#mask-2)" points="8.68118354 25.0910792 24.8850759 25.0910792 24.8850759 8.75337083 8.68118354 8.75337083"></polygon>
                </g>
            </g>
        </g>
    </g>
</svg>